<svg xmlns="http://www.w3.org/2000/svg" viewBox="0 0 1280 720">
<rect width="100%" height="100%" fill="black"></rect>
<path d="M 640 0 s -640 0 -640 360 M 640 0 s 640 0 640 360" fill="none" stroke="#1fa" stroke-width="6" stroke-linecap="round"></path>
<path d="M 640 0 s -620 0 -620 360 M 640 0 s 620 0 620 360" fill="none" stroke="#1fa" stroke-width="6" stroke-linecap="round"></path>
<path d="M 640 0 s -600 0 -600 360 M 640 0 s 600 0 600 360" fill="none" stroke="#1fa" stroke-width="6" stroke-linecap="round"></path>
<path d="M 640 0 s -580 0 -580 360 M 640 0 s 580 0 580 360" fill="none" stroke="#1fa" stroke-width="6" stroke-linecap="round"></path>
<path d="M 640 0 s -560 0 -560 360 M 640 0 s 560 0 560 360" fill="none" stroke="#1fa" stroke-width="6" stroke-linecap="round"></path>
<path d="M 640 0 s -540 0 -540 360 M 640 0 s 540 0 540 360" fill="none" stroke="#1fa" stroke-width="6" stroke-linecap="round"></path>
<path d="M 640 0 s -520 0 -520 360 M 640 0 s 520 0 520 360" fill="none" stroke="#1fa" stroke-width="6" stroke-linecap="round"></path>
<path d="M 640 0 s -500 0 -500 360 M 640 0 s 500 0 500 360" fill="none" stroke="#1fa" stroke-width="6" stroke-linecap="round"></path>
<path d="M 640 0 s -480 0 -480 360 M 640 0 s 480 0 480 360" fill="none" stroke="#1fa" stroke-width="6" stroke-linecap="round"></path>
<path d="M 640 0 s -460 0 -460 360 M 640 0 s 460 0 460 360" fill="none" stroke="#1fa" stroke-width="6" stroke-linecap="round"></path>
<path d="M 640 0 s -440 0 -440 360 M 640 0 s 440 0 440 360" fill="none" stroke="#1fa" stroke-width="6" stroke-linecap="round"></path>
<path d="M 640 0 s -420 0 -420 360 M 640 0 s 420 0 420 360" fill="none" stroke="#1fa" stroke-width="6" stroke-linecap="round"></path>
<path d="M 640 0 s -400 0 -400 360 M 640 0 s 400 0 400 360" fill="none" stroke="#1fa" stroke-width="6" stroke-linecap="round"></path>
<path d="M 640 0 s -380 0 -380 360 M 640 0 s 380 0 380 360" fill="none" stroke="#1fa" stroke-width="6" stroke-linecap="round"></path>
<path d="M 640 0 s -360 0 -360 360 M 640 0 s 360 0 360 360" fill="none" stroke="#1fa" stroke-width="6" stroke-linecap="round"></path>
<path d="M 640 0 s -340 0 -340 360 M 640 0 s 340 0 340 360" fill="none" stroke="#1fa" stroke-width="6" stroke-linecap="round"></path>
<path d="M 640 0 s -320 0 -320 360 M 640 0 s 320 0 320 360" fill="none" stroke="#1fa" stroke-width="6" stroke-linecap="round"></path>
<path d="M 640 0 s -300 0 -300 360 M 640 0 s 300 0 300 360" fill="none" stroke="#1fa" stroke-width="6" stroke-linecap="round"></path>
<path d="M 640 0 s -280 0 -280 360 M 640 0 s 280 0 280 360" fill="none" stroke="#1fa" stroke-width="6" stroke-linecap="round"></path>
<path d="M 640 0 s -260 0 -260 360 M 640 0 s 260 0 260 360" fill="none" stroke="#1fa" stroke-width="6" stroke-linecap="round"></path>
<path d="M 640 0 s -240 0 -240 360 M 640 0 s 240 0 240 360" fill="none" stroke="#1fa" stroke-width="6" stroke-linecap="round"></path>
<path d="M 640 0 s -220 0 -220 360 M 640 0 s 220 0 220 360" fill="none" stroke="#1fa" stroke-width="6" stroke-linecap="round"></path>
<path d="M 640 0 s -200 0 -200 360 M 640 0 s 200 0 200 360" fill="none" stroke="#1fa" stroke-width="6" stroke-linecap="round"></path>
<path d="M 640 0 s -180 0 -180 360 M 640 0 s 180 0 180 360" fill="none" stroke="#1fa" stroke-width="6" stroke-linecap="round"></path>
<path d="M 640 0 s -160 0 -160 360 M 640 0 s 160 0 160 360" fill="none" stroke="#1fa" stroke-width="6" stroke-linecap="round"></path>
<path d="M 640 0 s -140 0 -140 360 M 640 0 s 140 0 140 360" fill="none" stroke="#1fa" stroke-width="6" stroke-linecap="round"></path>
<path d="M 640 0 s -120 0 -120 360 M 640 0 s 120 0 120 360" fill="none" stroke="#1fa" stroke-width="6" stroke-linecap="round"></path>
<path d="M 640 0 s -100 0 -100 360 M 640 0 s 100 0 100 360" fill="none" stroke="#1fa" stroke-width="6" stroke-linecap="round"></path>
<path d="M 640 0 s  -80 0  -80 360 M 640 0 s  80 0  80 360" fill="none" stroke="#1fa" stroke-width="6" stroke-linecap="round"></path>
<path d="M 640 0 s  -60 0  -60 360 M 640 0 s  60 0  60 360" fill="none" stroke="#1fa" stroke-width="6" stroke-linecap="round"></path>
<path d="M 640 0 s  -40 0  -40 360 M 640 0 s  40 0  40 360" fill="none" stroke="#1fa" stroke-width="6" stroke-linecap="round"></path>
<path d="M 640 0 s  -20 0  -20 360 M 640 0 s  20 0  20 360" fill="none" stroke="#1fa" stroke-width="6" stroke-linecap="round"></path>
<path d="M 640 0 s   -0 0   -0 360 M 640 0 s   0 0   0 360" fill="none" stroke="#1fa" stroke-width="6" stroke-linecap="round"></path>
<path d="M 640  20 m -200 0 l  400 0" fill="none" stroke="#1fa" stroke-width="6" stroke-linecap="round"></path>
<path d="M 640  40 m -200 0 l  400 0" fill="none" stroke="#1fa" stroke-width="6" stroke-linecap="round"></path>
<path d="M 640  60 m -200 0 l  400 0" fill="none" stroke="#1fa" stroke-width="6" stroke-linecap="round"></path>
<path d="M 640  80 m -300 0 l  600 0" fill="none" stroke="#1fa" stroke-width="6" stroke-linecap="round"></path>
<path d="M 640 100 m -450 0 l  900 0" fill="none" stroke="#1fa" stroke-width="6" stroke-linecap="round"></path>
<path d="M 640 120 m -490 0 l  980 0" fill="none" stroke="#1fa" stroke-width="6" stroke-linecap="round"></path>
<path d="M 640 140 m -520 0 l 1040 0" fill="none" stroke="#1fa" stroke-width="6" stroke-linecap="round"></path>
<path d="M 640 160 m -545 0 l 1090 0" fill="none" stroke="#1fa" stroke-width="6" stroke-linecap="round"></path>
<path d="M 640 180 m -565 0 l 1130 0" fill="none" stroke="#1fa" stroke-width="6" stroke-linecap="round"></path>
<path d="M 640 200 m -585 0 l 1170 0" fill="none" stroke="#1fa" stroke-width="6" stroke-linecap="round"></path>
<path d="M 640 220 m -600 0 l 1200 0" fill="none" stroke="#1fa" stroke-width="6" stroke-linecap="round"></path>
<path d="M 640 240 m -610 0 l 1220 0" fill="none" stroke="#1fa" stroke-width="6" stroke-linecap="round"></path>
<path d="M 640 260 m -620 0 l 1240 0" fill="none" stroke="#1fa" stroke-width="6" stroke-linecap="round"></path>
<path d="M 640 280 m -625 0 l 1250 0" fill="none" stroke="#1fa" stroke-width="6" stroke-linecap="round"></path>
<path d="M 640 300 m -630 0 l 1260 0" fill="none" stroke="#1fa" stroke-width="6" stroke-linecap="round"></path>
<path d="M 640 320 m -635 0 l 1270 0" fill="none" stroke="#1fa" stroke-width="6" stroke-linecap="round"></path>
<path d="M 640 340 m -640 0 l 1280 0" fill="none" stroke="#1fa" stroke-width="6" stroke-linecap="round"></path>
<path d="M 640 360 m -640 0 l 1280 0" fill="none" stroke="#1fa" stroke-width="6" stroke-linecap="round"></path>
<path d="M 640 0 s 0 100 100 200 m 0 0 s -100 0 -100 200" fill="none" stroke="#1fa" stroke-width="100" stroke-linecap="round"></path>
<path d="M 640 0 s 0 100 -100 200 m 0 0 s 100 0 100 200" fill="none" stroke="#1fa" stroke-width="100" stroke-linecap="round"></path>
<path d="M 640 450 m -50 0 l -100 200 m 200 -200 l 100 200" fill="none" stroke="#555" stroke-width="6" stroke-linejoin="round" stroke-linecap="round"></path>
<path d="M 640 500 m -10 0 l 20 0 l -10 10 l -10 -10 m 10 10 l 0 50" fill="none" stroke="#555" stroke-width="6" stroke-linejoin="round" stroke-linecap="round"></path>
<path d="M 640 500 m 0 20 l -20 20 m 20 -20 l 20 20" fill="none" stroke="#555" stroke-width="6" stroke-linejoin="round" stroke-linecap="round"></path>
<path d="M 640 500 m 0 50 l -10 20 m 10 -20 l 10 20" fill="none" stroke="#555" stroke-width="6" stroke-linejoin="round" stroke-linecap="round"></path>
<path d="M 640 500 m -6 -6 l 1 1 m 10 0 l 1 -1" fill="none" stroke="#1fa" stroke-width="6" stroke-linecap="round"></path>
</svg>
